<?xml version="1.0" encoding="utf-8"?>
<!-- Generator: Adobe Illustrator 21.0.0, SVG Export Plug-In . SVG Version: 6.00 Build 0)  -->
<svg version="1.1" xmlns="http://www.w3.org/2000/svg" xmlns:xlink="http://www.w3.org/1999/xlink" x="0px" y="0px"
	 viewBox="0 0 800 600" style="enable-background:new 0 0 800 600;" xml:space="preserve">
<style type="text/css">
	.st0{fill:#FFFFFF;}
</style>
<g id="Layer_1">
</g>
<g id="Layer_2">
	<g>
		<path d="M19.6,589.2c0-192,0-384,0-576c256,0,512,0,768,0c0,0.1,0,0.2,0,0.4c0,190.8,0,381.7,0,572.5c0,1,0,1.9,0,3.2
			c-1.8,0-3.2,0-4.7,0c-183.2,0-366.4,0-549.6,0C162.1,589.2,90.9,589.2,19.6,589.2z M416.3,142.7c0.6,0.5,0.9,0.7,1.3,1.1
			c10.4,10.1,20.6,20.3,30.9,30.4c25.3,24.6,49.9,50,75.4,74.5c0.3,0.3,0.6,0.5,0.9,0.8c0.7-0.7,1.3-1.4,2.2-2.4
			c-2-1.7-3.9-3-5.5-4.7c-25.8-25.7-51.5-51.6-77.7-76.9c-7.6-7.3-14.9-14.8-22.3-22.2c-0.9-0.9-1.9-1.9-3-3c3.6-3.6,7-7,10.4-10.4
			c-8.3-8.3-16.6-16.6-24.7-24.7c-8.3,8.3-16.6,16.6-25.2,25.2c3.3,3.3,6.7,6.7,10.2,10.2c-0.9,0.8-1.8,1.7-2.7,2.6
			c-12.4,11.9-24.2,24.4-36.8,36.2c-18.5,17.4-35.7,36.3-54.4,53.6c-5,4.6-9.6,9.5-14.3,14.3c-0.1,0.1-0.2,0.4-0.3,0.7
			c0.7,0.6,1.5,1.1,2.2,1.7c10.5-9.7,20.1-20,30.4-29.7c17.6-16.5,33.8-34.3,51.5-50.7c8.5-7.9,16.5-16.4,24.7-24.6
			c0.7-0.7,1.4-1.2,2.2-1.9c4.2,4.2,8.1,8.2,12.2,12.2C408.1,150.9,412.2,146.8,416.3,142.7z M416.8,459.5c1-1.1,1.9-2,2.7-2.8
			c7.7-7.3,15-14.9,22.7-22.2c19.4-18.4,37.5-38,57.1-56.2c6.9-6.5,13.5-13.4,20.2-20.1c0.7-0.7,1.3-1.4,2.3-2.4
			c-0.9-0.8-1.6-1.4-2.2-2c-12.3,11.6-23.9,23.7-36,35.3c-23,22.2-45.2,45.2-68.3,67.3c-0.3,0.3-0.6,0.5-0.9,0.8
			c-3.5-3.5-7-7-10.9-10.9c-3.8,4-7.4,7.7-11,11.4c-8.4-7.7-15.8-16.6-24.7-23.8c-24.2-24-48.4-47.9-72.7-71.9
			c-2.5-2.5-4.9-4.9-7.4-7.4c-0.2-0.2-0.5-0.4-0.9-0.7c-0.6,0.8-1.3,1.5-2.3,2.7c1,0.7,1.8,1.2,2.6,1.9c4.3,4.1,8.7,8.2,13,12.3
			c18.7,18,36.5,36.9,55.4,54.7c11.4,10.7,22.2,22,33.2,33.1c0.6,0.6,1,1.3,1.6,2c-3.9,3.9-7.7,7.7-11.1,11.1
			c8.5,8.5,16.8,16.8,25,25c8.2-8.2,16.5-16.5,24.8-24.8C425.1,467.7,421,463.7,416.8,459.5z M218.4,314.6
			c9.3,7.3,19.2,14.1,28.9,21.4c9.7-7,19.2-14,28.7-20.9c0-9.9,0-19.6,0-29.7c-1.6-1.1-3.4-2.1-5-3.3c-7.1-5.2-14.1-10.5-21.2-15.8
			c-0.8-0.6-1.9-0.9-2.9-1.3c-9.6,7-19.1,13.8-28.5,20.7C218.4,295.2,218.4,304.6,218.4,314.6z M562.7,266
			c-4.9,3.6-9.6,7.1-14.4,10.5c-4.1,3-8.3,6-12.5,8.9c-0.9,0.6-1.3,1.4-1.3,2.2c0,1.7,0.4,3.4,0.4,5.1c0,7.7,0,15.4,0,23.2
			c3.4,2.4,6.7,4.7,9.9,7.1c4.3,3.2,8.5,6.5,12.9,9.6c2,1.4,3.7,3.7,6.4,3.9c9.2-7.1,18.8-13.6,27.7-20.5c0-10.3,0-20.2,0-29.8
			c-9.3-6.8-18.5-13.4-27.7-20.2C563.6,266,563,266,562.7,266z M446.6,301.4c5.1,0,9.9,0,14.9,0c0,8.5,0,16.8,0,25.2
			c2.6,0,4.9,0,7,0c-0.1-0.9-0.3-1.8-0.4-2.6c-0.5-16.7-0.2-49.4,0.4-51.9c-2.3,0-4.7,0-7.2,0c0,8,0,15.8,0,23.8
			c-4.6,0-8.9,0-13.3-0.1c-0.6,0-1.2-0.7-1.7-1c0-3.9-0.1-7.7,0-11.4c0.1-3.8-0.3-7.6,0.3-11.3c-2.3,0-4.6,0-6.9,0
			c0,18.2,0,36.3,0,54.4c2.5,0,4.8,0,7.2,0C446.2,324,446,310.7,446.6,301.4z M316.5,326.7c3.1,0,6.1,0.9,9.3,0.1
			c4.4-1.1,7.4-3.2,8.9-7.6c1.4-4.1,0.7-7.9-0.8-11.7c-1.8-4.9-5.9-7.7-9.7-10.7c-3.1-2.4-6.4-4.7-8.9-7.8c-1.9-2.3-2.3-5.1-1.3-7.9
			c1.5-4.6,7.7-4.9,10.5-2.4c2.4,2.2,3.6,4.9,3.5,8.1c1.4-0.2,2.5-0.4,3.7-0.6c1.3-0.3,2.5-0.7,3.7-1.1c0.3-2.6-1.1-4.6-2-6.7
			c-1.1-2.3-2.8-3.8-4.9-5.1c-1.8-1.1-3.7-1.2-5.5-1.6c-4-1-9.3,0.3-12.3,2.9c-1.6,1.4-3.1,3.2-3.3,5.2c-0.3,2.3-2.2,4.6-0.3,7
			c0,4.1,2.1,7.2,4.9,9.9c1.7,1.6,3.5,3.1,5.4,4.4c3.2,2.3,6.3,4.8,8.9,7.7c0.7,0.8,1.6,1.8,1.7,2.8c0,2.8,0.9,5.7-1,8.2
			c-0.9,0.4-1.6,0.7-2.4,1.1c-2.2,1.1-4.3,0.7-6.2-0.6c-1.9-1.3-3.1-3.2-3.7-5.3c-0.5-1.7-0.7-3.5-1-5.2c-2.2,0.5-4.2,1-6.5,1.5
			C306.5,318.6,309.9,323.6,316.5,326.7z M395,326.6c2.4,0,4.6,0,6.9,0c-1.9-9.1-3.7-18.2-5.8-27.2c-2.1-9.1-3.5-18.4-6.1-27.3
			c-2.6,0-4.8,0-7.1,0c-3.7,18.2-7.8,36.2-11.6,54.5c2.5,0,4.6,0,6.8,0c1.7-4.6,1.6-9.7,3.8-14.1c3.3,0,6.3,0,9.9,0
			C392.9,317.1,393.6,321.8,395,326.6z M497.6,326.5c2.5,0,4.8,0,7,0c-3.9-18.2-7.8-36.3-11.7-54.4c-2.6,0-4.9,0-7.3,0
			c-0.8,3.8-1.6,7.4-2.4,11.1c-0.8,3.7-1.5,7.3-2.3,11c-0.7,3.5-1.5,7.1-2.2,10.6c-0.8,3.7-1.4,7.3-2.3,11c-0.8,3.6-2,7.1-2.2,10.9
			c2.3,0,4.3,0,6.6,0c1.1-4.7,2.2-9.5,3.3-14.1c3.6,0,6.8,0,10.2,0C495.5,317.3,496.5,322,497.6,326.5z M350.6,272
			c-0.3,0.9-0.7,1.9-1,2.9c-0.7,3-1.4,6.1-2,9.2c-0.6,2.7-1.2,5.4-1.7,8.1c-0.9,4.2-1.8,8.5-2.7,12.7c-0.6,2.7-1.2,5.4-1.8,8.1
			c-0.9,4.4-1.8,8.9-2.7,13.4c2.3,0,4.7,0,6.9,0c0.6-2.5,1.3-4.8,1.8-7.2c0.5-2.3,0.5-4.8,1.6-6.8c3.4,0,6.5,0,9.5,0
			c0.4,0.4,0.7,0.7,0.8,1c0.8,3.6,1.6,7.3,2.4,11c0.2,0.8,0.6,1.5,0.9,2.2c2.4-0.1,4.5,0.2,6.7-0.3c-3.9-18.3-7.8-36.3-11.6-54.4
			C355.3,272,353.1,272,350.6,272z M434.5,271.9c-2.8,0.3-5.2-0.2-7.4,0.3c-0.1,1.5,0,2.7-0.3,3.9c-0.6,3.3-1.4,6.6-2.1,9.9
			c-0.6,3.1-1.3,6.1-1.9,9.2c-0.7,3.4-1.3,6.9-1.8,10.4c-0.4,2.5-0.5,5.1-0.8,7.7c-0.1,0.5-0.7,0.9-1.4,1.9c-2-14.9-5.2-29-7.8-43
			c-2.6,0-4.8,0-7.2,0c1,4.1,2,8,2.8,12c1.1,5.5,1.8,11,3.1,16.4c1.7,6.9,3.2,13.9,4.5,20.9c0.3,1.8,1.1,3.6,1.7,5.2
			c2.6,0,4.8,0,6.9,0C426.7,308.4,430.5,290.3,434.5,271.9z M253,347.5c12.4,11.6,23.8,23.9,36.1,35.4
			c16.8,15.7,32.4,32.8,49.3,48.5c9.9,9.2,19.1,19,28.7,28.5c0.9,0.9,1.8,1.7,3,2.9c0.7-0.9,1.3-1.7,2-2.5
			c-9-8.4-17.5-17.3-26.5-25.8c-17.6-16.6-34.1-34.3-51.7-50.9c-12.5-11.7-24.3-24.1-36.4-36.2c-0.8-0.8-1.6-1.5-2.6-2.4
			C254.2,346,253.7,346.6,253,347.5z M555.3,253c-1.5-1.2-2.6-1.9-3.4-2.7c-15.9-15.8-31.6-31.9-48-47.2c-6.5-6.2-12.7-12.7-19.1-19
			c-15.1-14.9-30.2-29.7-45.3-44.6c-0.4-0.4-0.9-0.7-1.4-1.1c-0.8,0.8-1.4,1.4-2.4,2.3c0.8,0.6,1.6,1.1,2.3,1.8
			c5.5,5.2,10.9,10.6,16.4,15.8c16.9,16,32.9,33,49.8,49.1c16.2,15.4,31.7,31.5,47.5,47.3c0.2,0.2,0.5,0.4,0.7,0.6
			C553.2,254.7,553.9,254.1,555.3,253z M437.9,462.9c11.4-10.7,22.2-22.3,33.8-33.1c17.2-16.1,33.2-33.5,50.4-49.6
			c10.9-10.2,21.3-21.1,31.9-31.7c0.1-0.1,0.2-0.4,0.3-0.7c-0.7-0.6-1.5-1.1-2.2-1.7c-0.5,0.5-0.9,0.8-1.3,1.2
			c-14.6,14.1-28.6,28.9-43.4,42.8c-17.2,16.1-33,33.6-50.4,49.6c-6.7,6.2-12.9,12.8-19.4,19.3c-0.6,0.6-1.2,1.2-2.1,2.2
			C436.4,461.8,437.2,462.4,437.9,462.9z M370,138.9c-6.7,6.1-13.1,12.9-19.9,19.3c-17.6,16.6-34.1,34.3-51.7,50.9
			c-11.9,11.2-23.2,23.1-34.8,34.6c-3.2,3.2-6.4,6.4-9.5,9.6c-0.2,0.2-0.3,0.6-0.4,1.1c0.6,0.5,1.2,0.9,1.6,1.2
			c3.3-3,6.6-5.7,9.6-8.6c16.7-16.2,32.8-33.1,49.8-49.1c14.9-14.1,29.1-28.9,43.5-43.4c0.8-0.8,1.5-1.7,2.4-2.3
			c4.5-3.2,7.8-7.6,12.2-11.6C371.7,139.9,370.9,139.4,370,138.9z"/>
		<path class="st0" d="M19.6,589.2c71.2,0,142.5,0,213.7,0c183.2,0,366.4,0,549.6,0c1.5,0,3,0,4.7,0c0-1.2,0-2.2,0-3.2
			c0-190.8,0-381.7,0-572.5c0-0.1,0-0.2,0-0.4c0.3,0,0.7,0,0.7,0c0,1.1,0,2.2,0,3.4c0,191.1,0,382.3,0,573.4
			c-255.1,0-510.2,0-765.4,0c-1.1,0-2.3,0-3.4,0C19.6,589.9,19.6,589.4,19.6,589.2z"/>
		<path class="st0" d="M416.3,142.7c-4.1,4.1-8.2,8.1-12.3,12.2c-4-4-8-8-12.2-12.2c-0.8,0.6-1.5,1.2-2.2,1.9
			c-8.2,8.2-16.2,16.7-24.7,24.6c-17.7,16.4-33.9,34.2-51.5,50.7c-10.3,9.6-19.9,20-30.4,29.7c-0.7-0.5-1.4-1.1-2.2-1.7
			c0.1-0.3,0.2-0.6,0.3-0.7c4.8-4.8,9.4-9.7,14.3-14.3c18.7-17.3,35.9-36.1,54.4-53.6c12.5-11.8,24.4-24.3,36.8-36.2
			c0.9-0.9,1.8-1.7,2.7-2.6c-3.5-3.5-7-6.9-10.2-10.2c8.5-8.5,16.9-16.9,25.2-25.2c8.1,8.1,16.4,16.4,24.7,24.7
			c-3.4,3.4-6.8,6.8-10.4,10.4c1.1,1.1,2,2.1,3,3c7.4,7.4,14.7,15,22.3,22.2c26.2,25.3,51.9,51.2,77.7,76.9c1.6,1.6,3.5,3,5.5,4.7
			c-0.9,0.9-1.5,1.6-2.2,2.4c-0.4-0.3-0.6-0.5-0.9-0.8c-25.5-24.5-50.1-49.8-75.4-74.5c-10.4-10.1-20.6-20.3-30.9-30.4
			C417.2,143.4,416.9,143.2,416.3,142.7z M392,137.7c0.5-0.5,1.2-1.2,1.9-1.8c2.8-2.8,5.6-5.7,8.5-8.5c0.6-0.5,1.4-0.8,2.3-1.2
			c2.1,2.2,4,4.2,5.9,6.1c1.9,1.9,3.7,3.9,5.4,5.3c3-3,5.6-5.8,8.3-8.5c-1.6-1.2-18.2-17.7-19.7-19.6c-6.9,6.9-13.8,13.8-20.3,20.3
			C386.6,132.2,389.2,134.8,392,137.7z M394,140.1c3.5,3.5,6.9,6.8,10,9.9c3.2-3.2,6.5-6.6,9.4-9.5c-3-3-6.1-6.2-9.4-9.6
			c0.1,0-0.3-0.1-0.4,0C400.3,134,397.1,137.1,394,140.1z"/>
		<path class="st0" d="M416.8,459.5c4.2,4.2,8.2,8.3,12.2,12.2c-8.4,8.4-16.7,16.7-24.8,24.8c-8.2-8.2-16.5-16.5-25-25
			c3.5-3.5,7.2-7.2,11.1-11.1c-0.6-0.7-1-1.4-1.6-2c-11-11.1-21.8-22.4-33.2-33.1c-18.9-17.8-36.7-36.7-55.4-54.7
			c-4.3-4.1-8.7-8.2-13-12.3c-0.7-0.7-1.6-1.2-2.6-1.9c1-1.2,1.6-1.9,2.3-2.7c0.4,0.3,0.7,0.5,0.9,0.7c2.5,2.5,4.9,5,7.4,7.4
			c24.2,24,48.4,47.9,72.7,71.9c8.9,7.3,16.3,16.1,24.7,23.8c3.6-3.7,7.2-7.4,11-11.4c3.9,3.9,7.4,7.4,10.9,10.9
			c0.4-0.3,0.6-0.6,0.9-0.8c23.1-22.1,45.3-45.1,68.3-67.3c12-11.6,23.6-23.6,36-35.3c0.6,0.6,1.3,1.2,2.2,2c-1,1-1.6,1.7-2.3,2.4
			c-6.7,6.7-13.2,13.6-20.2,20.1c-19.6,18.2-37.7,37.8-57.1,56.2c-7.7,7.3-15.1,14.9-22.7,22.2C418.7,457.5,417.9,458.4,416.8,459.5
			z M392.8,462.8c-3,3-6.1,6.1-9.1,9.1c6.6,6.7,13.4,13.6,20.2,20.4c0.1,0.1,0.2,0.1,0.3,0.1c0.1,0,0.2,0,0.6,0
			c6.3-6.3,12.8-12.8,19.2-19.2c0.4-0.5,0.5-1.3,0.9-2.2c-1.7-1.6-3.3-3.1-5-4.7c-1.7-1.6-3.2-3.4-5.1-4.9c-4,4-7.7,7.7-11.7,11.7
			C399.5,469.5,396.1,466.1,392.8,462.8z M395.5,459.8c2.8,2.8,5.5,5.5,7.9,7.9c2.8-2.8,5.9-5.9,8.9-8.9c-1.2-1.2-2.4-2.5-3.8-3.8
			c-1.4-1.3-2.5-3-4.3-3.9C401.2,454.1,398.3,457,395.5,459.8z"/>
		<path class="st0" d="M218.4,314.6c0-10,0-19.4,0-28.9c9.4-6.8,18.9-13.7,28.5-20.7c1,0.4,2.1,0.7,2.9,1.3
			c7.1,5.2,14.1,10.5,21.2,15.8c1.7,1.2,3.4,2.3,5,3.3c0,10.1,0,19.8,0,29.7c-9.5,6.9-19.1,13.9-28.7,20.9
			C237.6,328.7,227.8,321.9,218.4,314.6z M247.4,304.2c4.1-3,8.1-6,12.2-9c4.1-2.9,8.4-5.6,12.4-9.1c-8.6-5.7-16.2-12.2-24.7-17.6
			c-8.3,6-16.4,11.8-24.7,17.8C230.9,292.4,239,298.2,247.4,304.2z M221.4,313.1c7.3,5.4,14.5,10.8,21.8,16.2
			c0.5,0.4,1.1,0.6,1.6,0.8c0.3,0.1,0.7,0.1,1.2,0.2c0-7.7,0-15.3,0-23.4c-7.8-5.6-15.9-11.4-24-17.2c-0.3,0.3-0.5,0.5-0.5,0.7
			C221.4,297.9,221.4,305.3,221.4,313.1z M273.2,313.6c0-2,0-4,0-6c0-2,0-4,0-6c0-2,0.1-4,0-6c-0.1-1.9,0.4-3.8-0.4-5.8
			c-8.1,5.9-15.9,11.5-23.5,17c0,7.9,0,15.5,0,23.1c0,0.1,0.1,0.2,0.2,0.3c0.1,0.1,0.2,0.1,0.4,0.3
			C257.5,325,265.1,319.4,273.2,313.6z"/>
		<path class="st0" d="M562.7,266c0.4,0,1,0,1.5,0c9.2,6.7,18.4,13.4,27.7,20.2c0,9.6,0,19.5,0,29.8c-8.9,6.9-18.5,13.4-27.7,20.5
			c-2.8-0.2-4.4-2.5-6.4-3.9c-4.4-3.1-8.6-6.4-12.9-9.6c-3.2-2.4-6.5-4.7-9.9-7.1c0-7.7,0-15.5,0-23.2c0-1.7-0.4-3.4-0.4-5.1
			c0-0.9,0.3-1.6,1.3-2.2c4.2-2.9,8.4-5.9,12.5-8.9C553,273,557.8,269.6,562.7,266z M538.8,287.1c8.4,6.3,16.6,12.1,24.6,17.9
			c4.1-3,8.2-5.8,12.2-8.9c3.9-3,8.3-5.5,12-9c-1.3-1.1-2.4-2.1-3.5-3c-6.3-4.6-12.6-9.2-19-13.8c-0.7-0.5-1.8-0.6-2.3-0.7
			C554.8,275.5,547.1,281.1,538.8,287.1z M537.2,313.8c8,5.6,15.8,12,24.6,17.7c0-8.3,0-16.1,0-24c-8-5.7-16-11.4-24-17.1
			c-0.3,0.5-0.6,0.7-0.6,0.9C537.2,298.7,537.2,306.1,537.2,313.8z M588.8,290.5c-8.1,5.9-16,11.5-23.9,17.2c0,7.5,0,15.1,0,22.7
			c0,0.2,0.2,0.4,0.5,0.9c7.3-4.8,14-10.4,21.3-15.3c0.8-0.5,1.5-1.3,2-1.7C588.8,306.4,588.8,298.7,588.8,290.5z"/>
		<path class="st0" d="M446.6,301.4c-0.5,9.4-0.3,22.6,0.4,25.2c-2.4,0-4.7,0-7.2,0c0-18.1,0-36.2,0-54.4c2.3,0,4.6,0,6.9,0
			c-0.6,3.7-0.2,7.5-0.3,11.3c-0.1,3.7,0,7.5,0,11.4c0.5,0.3,1.1,1,1.7,1c4.3,0.1,8.7,0.1,13.3,0.1c0-8.1,0-15.9,0-23.8
			c2.6,0,4.9,0,7.2,0c-0.6,2.4-0.9,35.2-0.4,51.9c0,0.8,0.2,1.6,0.4,2.6c-2.1,0-4.5,0-7,0c0-8.3,0-16.7,0-25.2
			C456.4,301.4,451.6,301.4,446.6,301.4z"/>
		<path class="st0" d="M316.5,326.7c-6.6-3.1-9.9-8-9.5-15.4c2.3-0.5,4.4-1,6.5-1.5c0.3,1.7,0.5,3.5,1,5.2c0.6,2.2,1.8,4,3.7,5.3
			c1.9,1.4,4,1.7,6.2,0.6c0.8-0.4,1.5-0.7,2.4-1.1c1.9-2.4,1-5.4,1-8.2c0-0.9-0.9-2-1.7-2.8c-2.7-2.9-5.7-5.4-8.9-7.7
			c-1.9-1.3-3.7-2.9-5.4-4.4c-2.9-2.7-4.9-5.8-4.9-9.9c-1.9-2.4,0.1-4.7,0.3-7c0.2-1.9,1.7-3.7,3.3-5.2c3-2.7,8.3-3.9,12.3-2.9
			c1.9,0.5,3.8,0.6,5.5,1.6c2.1,1.3,3.9,2.8,4.9,5.1c1,2.1,2.3,4.1,2,6.7c-1.2,0.4-2.4,0.8-3.7,1.1c-1.1,0.3-2.3,0.4-3.7,0.6
			c0.1-3.3-1.1-6-3.5-8.1c-2.8-2.5-8.9-2.2-10.5,2.4c-0.9,2.8-0.6,5.7,1.3,7.9c2.5,3.1,5.8,5.4,8.9,7.8c3.8,3,7.9,5.8,9.7,10.7
			c1.4,3.9,2.1,7.7,0.8,11.7c-1.5,4.4-4.6,6.5-8.9,7.6C322.5,327.5,319.5,326.6,316.5,326.7z"/>
		<path class="st0" d="M395,326.6c-1.3-4.8-2.1-9.5-3.1-14.1c-3.6,0-6.6,0-9.9,0c-2.2,4.3-2.1,9.4-3.8,14.1c-2.3,0-4.3,0-6.8,0
			c3.7-18.3,7.8-36.3,11.6-54.5c2.3,0,4.5,0,7.1,0c2.6,8.9,4,18.2,6.1,27.3c2.1,9,3.9,18.1,5.8,27.2
			C399.6,326.6,397.4,326.6,395,326.6z M386.5,283.2c-0.3,0.7-0.7,1.5-0.8,2.2c-0.2,1.1,0.2,2.4-0.2,3.3c-1,2.2-0.5,4.6-1.2,6.8
			c-0.6,2.1-0.2,4.5-1,6.5c-0.7,2-0.5,3.8-0.6,5.8c2.6,0,4.9,0,7,0c1.3-0.7,1.3-1.8,1.2-2.8c-0.4-2.1-1.3-4.2-1.4-6.3
			C389.2,293.5,387.4,288.5,386.5,283.2z"/>
		<path class="st0" d="M497.6,326.5c-1.1-4.6-2.1-9.2-3.2-14c-3.5,0-6.7,0-10.2,0c-1.1,4.6-2.2,9.3-3.3,14.1c-2.3,0-4.3,0-6.6,0
			c0.2-3.8,1.4-7.3,2.2-10.9c0.8-3.6,1.5-7.3,2.3-11c0.7-3.5,1.5-7.1,2.2-10.6c0.8-3.7,1.5-7.3,2.3-11c0.8-3.6,1.6-7.3,2.4-11.1
			c2.4,0,4.7,0,7.3,0c3.9,18.1,7.8,36.2,11.7,54.4C502.4,326.5,500.1,326.5,497.6,326.5z M484.9,306.9c2,1.5,6.5,1.5,8.6,0
			c-1-7.7-2.5-15.3-4.7-22.9C487.5,291.6,486.2,299.2,484.9,306.9z"/>
		<path class="st0" d="M350.6,272c2.5,0,4.7,0,7,0c3.9,18.1,7.7,36.1,11.6,54.4c-2.2,0.5-4.3,0.1-6.7,0.3c-0.3-0.7-0.7-1.4-0.9-2.2
			c-0.8-3.6-1.6-7.3-2.4-11c-0.1-0.3-0.5-0.6-0.8-1c-3,0-6.1,0-9.5,0c-1.1,2-1.1,4.4-1.6,6.8c-0.5,2.4-1.1,4.7-1.8,7.2
			c-2.2,0-4.5,0-6.9,0c0.9-4.5,1.8-8.9,2.7-13.4c0.6-2.7,1.2-5.4,1.8-8.1c0.9-4.2,1.8-8.5,2.7-12.7c0.6-2.7,1.1-5.4,1.7-8.1
			c0.7-3.1,1.3-6.1,2-9.2C349.9,274,350.3,272.9,350.6,272z M358.2,307.8c-0.7-4.9-1.1-9.3-1.9-13.7c-0.6-3-1.3-5.9-1.4-8.9
			c0-0.4-0.5-0.9-1.1-2c-0.2,1.5-0.2,2.2-0.4,2.9c-1.2,3.9-1.4,8.1-2.3,12c-0.6,2.5-0.1,5.1-1.3,7.5c-0.5,1,0.3,1.9,1.1,2.3
			C353.2,307.8,355.4,307.8,358.2,307.8z"/>
		<path class="st0" d="M434.5,271.9c-4,18.5-7.8,36.5-11.7,54.7c-2.1,0-4.3,0-6.9,0c-0.5-1.6-1.3-3.3-1.7-5.2
			c-1.2-7-2.8-14-4.5-20.9c-1.3-5.4-2-10.9-3.1-16.4c-0.8-4-1.9-7.9-2.8-12c2.3,0,4.6,0,7.2,0c2.6,14.1,5.8,28.2,7.8,43
			c0.7-0.9,1.3-1.4,1.4-1.9c0.3-2.5,0.5-5.1,0.8-7.7c0.5-3.5,1.2-6.9,1.8-10.4c0.6-3.1,1.2-6.1,1.9-9.2c0.7-3.3,1.5-6.6,2.1-9.9
			c0.2-1.2,0.2-2.5,0.3-3.9C429.3,271.7,431.6,272.1,434.5,271.9z"/>
		<path class="st0" d="M253,347.5c0.7-0.9,1.2-1.6,1.9-2.4c1,0.9,1.9,1.6,2.6,2.4c12.1,12.1,23.9,24.5,36.4,36.2
			c17.6,16.6,34.1,34.3,51.7,50.9c9,8.4,17.4,17.4,26.5,25.8c-0.7,0.9-1.3,1.6-2,2.5c-1.2-1.2-2.1-2-3-2.9
			c-9.5-9.5-18.8-19.3-28.7-28.5c-16.9-15.7-32.5-32.8-49.3-48.5C276.8,371.5,265.4,359.2,253,347.5z"/>
		<path class="st0" d="M555.3,253c-1.4,1.1-2.1,1.7-2.8,2.3c-0.2-0.2-0.5-0.4-0.7-0.6c-15.8-15.8-31.3-31.9-47.5-47.3
			c-16.9-16.1-32.9-33.1-49.8-49.1c-5.5-5.2-10.9-10.6-16.4-15.8c-0.7-0.7-1.5-1.2-2.3-1.8c1-1,1.6-1.6,2.4-2.3
			c0.5,0.4,1,0.7,1.4,1.1c15.1,14.9,30.2,29.7,45.3,44.6c6.4,6.3,12.6,12.9,19.1,19c16.4,15.4,32,31.5,48,47.2
			C552.7,251.1,553.8,251.8,555.3,253z"/>
		<path class="st0" d="M437.9,462.9c-0.8-0.5-1.5-1.1-2.5-1.8c1-1,1.5-1.6,2.1-2.2c6.4-6.4,12.7-13.1,19.4-19.3
			c17.4-16,33.2-33.5,50.4-49.6c14.8-13.9,28.8-28.7,43.4-42.8c0.4-0.3,0.7-0.7,1.3-1.2c0.8,0.6,1.5,1.2,2.2,1.7
			c-0.1,0.3-0.1,0.6-0.3,0.7c-10.6,10.6-20.9,21.5-31.9,31.7c-17.2,16.1-33.2,33.5-50.4,49.6C460.1,440.6,449.4,452.2,437.9,462.9z"
			/>
		<path class="st0" d="M370,138.9c0.9,0.6,1.7,1,2.8,1.7c-4.4,4-7.7,8.4-12.2,11.6c-0.9,0.6-1.6,1.5-2.4,2.3
			c-14.5,14.5-28.7,29.3-43.5,43.4c-16.9,16-33,32.9-49.8,49.1c-3,2.9-6.3,5.6-9.6,8.6c-0.4-0.3-1-0.7-1.6-1.2
			c0.2-0.4,0.2-0.8,0.4-1.1c3.2-3.2,6.3-6.4,9.5-9.6c11.6-11.6,22.9-23.4,34.8-34.6c17.6-16.6,34.1-34.3,51.7-50.9
			C356.8,151.7,363.3,144.9,370,138.9z"/>
		<path d="M392,137.7c-2.8-2.8-5.4-5.4-7.7-7.8c6.5-6.5,13.4-13.4,20.3-20.3c1.5,1.9,18,18.4,19.7,19.6c-2.6,2.7-5.3,5.4-8.3,8.5
			c-1.7-1.4-3.5-3.4-5.4-5.3c-1.9-1.9-3.8-4-5.9-6.1c-0.9,0.5-1.7,0.7-2.3,1.2c-2.9,2.8-5.7,5.6-8.5,8.5
			C393.2,136.5,392.5,137.2,392,137.7z"/>
		<path d="M394,140.1c3.1-3,6.4-6.1,9.6-9.1c0.1-0.1,0.5,0,0.4,0c3.3,3.3,6.4,6.5,9.4,9.6c-2.9,2.9-6.2,6.2-9.4,9.5
			C400.8,146.9,397.5,143.6,394,140.1z"/>
		<path d="M392.8,462.8c3.3,3.3,6.7,6.7,10.3,10.3c4-4,7.7-7.7,11.7-11.7c1.9,1.5,3.4,3.3,5.1,4.9c1.6,1.5,3.3,3.1,5,4.7
			c-0.3,0.9-0.4,1.7-0.9,2.2c-6.4,6.5-12.8,12.9-19.2,19.2c-0.3,0-0.4,0-0.6,0c-0.1,0-0.3-0.1-0.3-0.1c-6.8-6.8-13.5-13.7-20.2-20.4
			C386.7,468.9,389.8,465.8,392.8,462.8z"/>
		<path d="M395.5,459.8c2.8-2.8,5.7-5.7,8.7-8.7c1.7,0.9,2.9,2.6,4.3,3.9c1.4,1.3,2.6,2.6,3.8,3.8c-3.1,3.1-6.1,6.1-8.9,8.9
			C401,465.3,398.4,462.7,395.5,459.8z"/>
		<path d="M247.4,304.2c-8.4-6-16.5-11.8-24.9-17.8c8.4-6,16.4-11.8,24.7-17.8c8.5,5.4,16,11.9,24.7,17.6c-4,3.4-8.3,6.1-12.4,9.1
			C255.5,298.2,251.5,301.2,247.4,304.2z"/>
		<path d="M221.4,313.1c0-7.8,0-15.2,0-22.5c0-0.2,0.3-0.4,0.5-0.7c8.1,5.8,16.2,11.6,24,17.2c0,8.1,0,15.6,0,23.4
			c-0.5-0.1-0.9-0.1-1.2-0.2c-0.6-0.2-1.1-0.5-1.6-0.8C235.9,323.9,228.7,318.5,221.4,313.1z"/>
		<path d="M273.2,313.6c-8,5.8-15.7,11.4-23.3,16.9c-0.3-0.2-0.4-0.2-0.4-0.3c-0.1-0.1-0.2-0.2-0.2-0.3c0-7.6,0-15.2,0-23.1
			c7.6-5.5,15.4-11.2,23.5-17c0.8,2,0.3,4,0.4,5.8c0.1,2,0,4,0,6c0,2,0,4,0,6C273.2,309.6,273.2,311.6,273.2,313.6z"/>
		<path d="M538.8,287.1c8.3-6,16-11.6,24.1-17.4c0.5,0.1,1.5,0.2,2.3,0.7c6.4,4.5,12.7,9.1,19,13.8c1.2,0.8,2.2,1.9,3.5,3
			c-3.7,3.5-8,6-12,9c-4,3-8.1,5.9-12.2,8.9C555.4,299.1,547.2,293.4,538.8,287.1z"/>
		<path d="M537.2,313.8c0-7.7,0-15.1,0-22.4c0-0.2,0.2-0.4,0.6-0.9c8,5.7,16,11.4,24,17.1c0,7.8,0,15.6,0,24
			C553,325.8,545.2,319.4,537.2,313.8z"/>
		<path d="M588.8,290.5c0,8.2,0,15.9,0,23.9c-0.6,0.5-1.2,1.2-2,1.7c-7.3,4.8-14,10.4-21.3,15.3c-0.3-0.5-0.5-0.7-0.5-0.9
			c0-7.6,0-15.2,0-22.7C572.8,302,580.7,296.4,588.8,290.5z"/>
		<path d="M386.5,283.2c0.9,5.3,2.7,10.3,3,15.5c0.1,2.1,1,4.2,1.4,6.3c0.2,1,0.2,2-1.2,2.8c-2.1,0-4.4,0-7,0c0-2-0.2-3.8,0.6-5.8
			c0.7-2,0.3-4.4,1-6.5c0.7-2.2,0.3-4.6,1.2-6.8c0.4-0.9,0-2.2,0.2-3.3C385.8,284.7,386.2,284,386.5,283.2z"/>
		<path d="M484.9,306.9c1.3-7.7,2.6-15.3,3.9-23c2.2,7.6,3.6,15.2,4.7,22.9C491.4,308.4,486.9,308.4,484.9,306.9z"/>
		<path d="M358.2,307.8c-2.8,0-5,0-7.4,0c-0.8-0.4-1.6-1.3-1.1-2.3c1.2-2.4,0.7-5,1.3-7.5c0.9-4,1.2-8.1,2.3-12
			c0.2-0.7,0.2-1.4,0.4-2.9c0.7,1.1,1.1,1.6,1.1,2c0,3.1,0.8,6,1.4,8.9C357,298.5,357.5,303,358.2,307.8z"/>
	</g>
</g>
</svg>
