<svg xmlns="http://www.w3.org/2000/svg" viewBox="0 0 800 600" class="undefined"><style type="text/css" class="undefined">  
	.st0{fill:#FFFFFF;}
</style><path d="M19.6 589.2c0-192 0-384 0-576 256 0 512 0 768 0 0 0.1 0 0.2 0 0.4 0 190.8 0 381.7 0 572.5 0 1 0 1.9 0 3.2 -1.8 0-3.2 0-4.7 0 -183.2 0-366.4 0-549.6 0C162.1 589.2 90.9 589.2 19.6 589.2zM416.3 142.7c0.6 0.5 0.9 0.7 1.3 1.1 10.4 10.1 20.6 20.3 30.9 30.4 25.3 24.6 49.9 50 75.4 74.5 0.3 0.3 0.6 0.5 0.9 0.8 0.7-0.7 1.3-1.4 2.2-2.4 -2-1.7-3.9-3-5.5-4.7 -25.8-25.7-51.5-51.6-77.7-76.9 -7.6-7.3-14.9-14.8-22.3-22.2 -0.9-0.9-1.9-1.9-3-3 3.6-3.6 7-7 10.4-10.4 -8.3-8.3-16.6-16.6-24.7-24.7 -8.3 8.3-16.6 16.6-25.2 25.2 3.3 3.3 6.7 6.7 10.2 10.2 -0.9 0.8-1.8 1.7-2.7 2.6 -12.4 11.9-24.2 24.4-36.8 36.2 -18.5 17.4-35.7 36.3-54.4 53.6 -5 4.6-9.6 9.5-14.3 14.3 -0.1 0.1-0.2 0.4-0.3 0.7 0.7 0.6 1.5 1.1 2.2 1.7 10.5-9.7 20.1-20 30.4-29.7 17.6-16.5 33.8-34.3 51.5-50.7 8.5-7.9 16.5-16.4 24.7-24.6 0.7-0.7 1.4-1.2 2.2-1.9 4.2 4.2 8.1 8.2 12.2 12.2C408.1 150.9 412.2 146.8 416.3 142.7zM416.8 459.5c1-1.1 1.9-2 2.7-2.8 7.7-7.3 15-14.9 22.7-22.2 19.4-18.4 37.5-38 57.1-56.2 6.9-6.5 13.5-13.4 20.2-20.1 0.7-0.7 1.3-1.4 2.3-2.4 -0.9-0.8-1.6-1.4-2.2-2 -12.3 11.6-23.9 23.7-36 35.3 -23 22.2-45.2 45.2-68.3 67.3 -0.3 0.3-0.6 0.5-0.9 0.8 -3.5-3.5-7-7-10.9-10.9 -3.8 4-7.4 7.7-11 11.4 -8.4-7.7-15.8-16.6-24.7-23.8 -24.2-24-48.4-47.9-72.7-71.9 -2.5-2.5-4.9-4.9-7.4-7.4 -0.2-0.2-0.5-0.4-0.9-0.7 -0.6 0.8-1.3 1.5-2.3 2.7 1 0.7 1.8 1.2 2.6 1.9 4.3 4.1 8.7 8.2 13 12.3 18.7 18 36.5 36.9 55.4 54.7 11.4 10.7 22.2 22 33.2 33.1 0.6 0.6 1 1.3 1.6 2 -3.9 3.9-7.7 7.7-11.1 11.1 8.5 8.5 16.8 16.8 25 25 8.2-8.2 16.5-16.5 24.8-24.8C425.1 467.7 421 463.7 416.8 459.5zM218.4 314.6c9.3 7.3 19.2 14.1 28.9 21.4 9.7-7 19.2-14 28.7-20.9 0-9.9 0-19.6 0-29.7 -1.6-1.1-3.4-2.1-5-3.3 -7.1-5.2-14.1-10.5-21.2-15.8 -0.8-0.6-1.9-0.9-2.9-1.3 -9.6 7-19.1 13.8-28.5 20.7C218.4 295.2 218.4 304.6 218.4 314.6zM562.7 266c-4.9 3.6-9.6 7.1-14.4 10.5 -4.1 3-8.3 6-12.5 8.9 -0.9 0.6-1.3 1.4-1.3 2.2 0 1.7 0.4 3.4 0.4 5.1 0 7.7 0 15.4 0 23.2 3.4 2.4 6.7 4.7 9.9 7.1 4.3 3.2 8.5 6.5 12.9 9.6 2 1.4 3.7 3.7 6.4 3.9 9.2-7.1 18.8-13.6 27.7-20.5 0-10.3 0-20.2 0-29.8 -9.3-6.8-18.5-13.4-27.7-20.2C563.6 266 563 266 562.7 266zM446.6 301.4c5.1 0 9.9 0 14.9 0 0 8.5 0 16.8 0 25.2 2.6 0 4.9 0 7 0 -0.1-0.9-0.3-1.8-0.4-2.6 -0.5-16.7-0.2-49.4 0.4-51.9 -2.3 0-4.7 0-7.2 0 0 8 0 15.8 0 23.8 -4.6 0-8.9 0-13.3-0.1 -0.6 0-1.2-0.7-1.7-1 0-3.9-0.1-7.7 0-11.4 0.1-3.8-0.3-7.6 0.3-11.3 -2.3 0-4.6 0-6.9 0 0 18.2 0 36.3 0 54.4 2.5 0 4.8 0 7.2 0C446.2 324 446 310.7 446.6 301.4zM316.5 326.7c3.1 0 6.1 0.9 9.3 0.1 4.4-1.1 7.4-3.2 8.9-7.6 1.4-4.1 0.7-7.9-0.8-11.7 -1.8-4.9-5.9-7.7-9.7-10.7 -3.1-2.4-6.4-4.7-8.9-7.8 -1.9-2.3-2.3-5.1-1.3-7.9 1.5-4.6 7.7-4.9 10.5-2.4 2.4 2.2 3.6 4.9 3.5 8.1 1.4-0.2 2.5-0.4 3.7-0.6 1.3-0.3 2.5-0.7 3.7-1.1 0.3-2.6-1.1-4.6-2-6.7 -1.1-2.3-2.8-3.8-4.9-5.1 -1.8-1.1-3.7-1.2-5.5-1.6 -4-1-9.3 0.3-12.3 2.9 -1.6 1.4-3.1 3.2-3.3 5.2 -0.3 2.3-2.2 4.6-0.3 7 0 4.1 2.1 7.2 4.9 9.9 1.7 1.6 3.5 3.1 5.4 4.4 3.2 2.3 6.3 4.8 8.9 7.7 0.7 0.8 1.6 1.8 1.7 2.8 0 2.8 0.9 5.7-1 8.2 -0.9 0.4-1.6 0.7-2.4 1.1 -2.2 1.1-4.3 0.7-6.2-0.6 -1.9-1.3-3.1-3.2-3.7-5.3 -0.5-1.7-0.7-3.5-1-5.2 -2.2 0.5-4.2 1-6.5 1.5C306.5 318.6 309.9 323.6 316.5 326.7zM395 326.6c2.4 0 4.6 0 6.9 0 -1.9-9.1-3.7-18.2-5.8-27.2 -2.1-9.1-3.5-18.4-6.1-27.3 -2.6 0-4.8 0-7.1 0 -3.7 18.2-7.8 36.2-11.6 54.5 2.5 0 4.6 0 6.8 0 1.7-4.6 1.6-9.7 3.8-14.1 3.3 0 6.3 0 9.9 0C392.9 317.1 393.6 321.8 395 326.6zM497.6 326.5c2.5 0 4.8 0 7 0 -3.9-18.2-7.8-36.3-11.7-54.4 -2.6 0-4.9 0-7.3 0 -0.8 3.8-1.6 7.4-2.4 11.1 -0.8 3.7-1.5 7.3-2.3 11 -0.7 3.5-1.5 7.1-2.2 10.6 -0.8 3.7-1.4 7.3-2.3 11 -0.8 3.6-2 7.1-2.2 10.9 2.3 0 4.3 0 6.6 0 1.1-4.7 2.2-9.5 3.3-14.1 3.6 0 6.8 0 10.2 0C495.5 317.3 496.5 322 497.6 326.5zM350.6 272c-0.3 0.9-0.7 1.9-1 2.9 -0.7 3-1.4 6.1-2 9.2 -0.6 2.7-1.2 5.4-1.7 8.1 -0.9 4.2-1.8 8.5-2.7 12.7 -0.6 2.7-1.2 5.4-1.8 8.1 -0.9 4.4-1.8 8.9-2.7 13.4 2.3 0 4.7 0 6.9 0 0.6-2.5 1.3-4.8 1.8-7.2 0.5-2.3 0.5-4.8 1.6-6.8 3.4 0 6.5 0 9.5 0 0.4 0.4 0.7 0.7 0.8 1 0.8 3.6 1.6 7.3 2.4 11 0.2 0.8 0.6 1.5 0.9 2.2 2.4-0.1 4.5 0.2 6.7-0.3 -3.9-18.3-7.8-36.3-11.6-54.4C355.3 272 353.1 272 350.6 272zM434.5 271.9c-2.8 0.3-5.2-0.2-7.4 0.3 -0.1 1.5 0 2.7-0.3 3.9 -0.6 3.3-1.4 6.6-2.1 9.9 -0.6 3.1-1.3 6.1-1.9 9.2 -0.7 3.4-1.3 6.9-1.8 10.4 -0.4 2.5-0.5 5.1-0.8 7.7 -0.1 0.5-0.7 0.9-1.4 1.9 -2-14.9-5.2-29-7.8-43 -2.6 0-4.8 0-7.2 0 1 4.1 2 8 2.8 12 1.1 5.5 1.8 11 3.1 16.4 1.7 6.9 3.2 13.9 4.5 20.9 0.3 1.8 1.1 3.6 1.7 5.2 2.6 0 4.8 0 6.9 0C426.7 308.4 430.5 290.3 434.5 271.9zM253 347.5c12.4 11.6 23.8 23.9 36.1 35.4 16.8 15.7 32.4 32.8 49.3 48.5 9.9 9.2 19.1 19 28.7 28.5 0.9 0.9 1.8 1.7 3 2.9 0.7-0.9 1.3-1.7 2-2.5 -9-8.4-17.5-17.3-26.5-25.8 -17.6-16.6-34.1-34.3-51.7-50.9 -12.5-11.7-24.3-24.1-36.4-36.2 -0.8-0.8-1.6-1.5-2.6-2.4C254.2 346 253.7 346.6 253 347.5zM555.3 253c-1.5-1.2-2.6-1.9-3.4-2.7 -15.9-15.8-31.6-31.9-48-47.2 -6.5-6.2-12.7-12.7-19.1-19 -15.1-14.9-30.2-29.7-45.3-44.6 -0.4-0.4-0.9-0.7-1.4-1.1 -0.8 0.8-1.4 1.4-2.4 2.3 0.8 0.6 1.6 1.1 2.3 1.8 5.5 5.2 10.9 10.6 16.4 15.8 16.9 16 32.9 33 49.8 49.1 16.2 15.4 31.7 31.5 47.5 47.3 0.2 0.2 0.5 0.4 0.7 0.6C553.2 254.7 553.9 254.1 555.3 253zM437.9 462.9c11.4-10.7 22.2-22.3 33.8-33.1 17.2-16.1 33.2-33.5 50.4-49.6 10.9-10.2 21.3-21.1 31.9-31.7 0.1-0.1 0.2-0.4 0.3-0.7 -0.7-0.6-1.5-1.1-2.2-1.7 -0.5 0.5-0.9 0.8-1.3 1.2 -14.6 14.1-28.6 28.9-43.4 42.8 -17.2 16.1-33 33.6-50.4 49.6 -6.7 6.2-12.9 12.8-19.4 19.3 -0.6 0.6-1.2 1.2-2.1 2.2C436.4 461.8 437.2 462.4 437.9 462.9zM370 138.9c-6.7 6.1-13.1 12.9-19.9 19.3 -17.6 16.6-34.1 34.3-51.7 50.9 -11.9 11.2-23.2 23.1-34.8 34.6 -3.2 3.2-6.4 6.4-9.5 9.6 -0.2 0.2-0.3 0.6-0.4 1.1 0.6 0.5 1.2 0.9 1.6 1.2 3.3-3 6.6-5.7 9.6-8.6 16.7-16.2 32.8-33.1 49.8-49.1 14.9-14.1 29.1-28.9 43.5-43.4 0.8-0.8 1.5-1.7 2.4-2.3 4.5-3.2 7.8-7.6 12.2-11.6C371.7 139.9 370.9 139.4 370 138.9z" class="undefined"/><path class="st0" d="M19.6 589.2c71.2 0 142.5 0 213.7 0 183.2 0 366.4 0 549.6 0 1.5 0 3 0 4.7 0 0-1.2 0-2.2 0-3.2 0-190.8 0-381.7 0-572.5 0-0.1 0-0.2 0-0.4 0.3 0 0.7 0 0.7 0 0 1.1 0 2.2 0 3.4 0 191.1 0 382.3 0 573.4 -255.1 0-510.2 0-765.4 0 -1.1 0-2.3 0-3.4 0C19.6 589.9 19.6 589.4 19.6 589.2z" class="undefined"/><path class="st0" d="M416.3 142.7c-4.1 4.1-8.2 8.1-12.3 12.2 -4-4-8-8-12.2-12.2 -0.8 0.6-1.5 1.2-2.2 1.9 -8.2 8.2-16.2 16.7-24.7 24.6 -17.7 16.4-33.9 34.2-51.5 50.7 -10.3 9.6-19.9 20-30.4 29.7 -0.7-0.5-1.4-1.1-2.2-1.7 0.1-0.3 0.2-0.6 0.3-0.7 4.8-4.8 9.4-9.7 14.3-14.3 18.7-17.3 35.9-36.1 54.4-53.6 12.5-11.8 24.4-24.3 36.8-36.2 0.9-0.9 1.8-1.7 2.7-2.6 -3.5-3.5-7-6.9-10.2-10.2 8.5-8.5 16.9-16.9 25.2-25.2 8.1 8.1 16.4 16.4 24.7 24.7 -3.4 3.4-6.8 6.8-10.4 10.4 1.1 1.1 2 2.1 3 3 7.4 7.4 14.7 15 22.3 22.2 26.2 25.3 51.9 51.2 77.7 76.9 1.6 1.6 3.5 3 5.5 4.7 -0.9 0.9-1.5 1.6-2.2 2.4 -0.4-0.3-0.6-0.5-0.9-0.8 -25.5-24.5-50.1-49.8-75.4-74.5 -10.4-10.1-20.6-20.3-30.9-30.4C417.2 143.4 416.9 143.2 416.3 142.7zM392 137.7c0.5-0.5 1.2-1.2 1.9-1.8 2.8-2.8 5.6-5.7 8.5-8.5 0.6-0.5 1.4-0.8 2.3-1.2 2.1 2.2 4 4.2 5.9 6.1 1.9 1.9 3.7 3.9 5.4 5.3 3-3 5.6-5.8 8.3-8.5 -1.6-1.2-18.2-17.7-19.7-19.6 -6.9 6.9-13.8 13.8-20.3 20.3C386.6 132.2 389.2 134.8 392 137.7zM394 140.1c3.5 3.5 6.9 6.8 10 9.9 3.2-3.2 6.5-6.6 9.4-9.5 -3-3-6.1-6.2-9.4-9.6 0.1 0-0.3-0.1-0.4 0C400.3 134 397.1 137.1 394 140.1z" class="undefined"/><path class="st0" d="M416.8 459.5c4.2 4.2 8.2 8.3 12.2 12.2 -8.4 8.4-16.7 16.7-24.8 24.8 -8.2-8.2-16.5-16.5-25-25 3.5-3.5 7.2-7.2 11.1-11.1 -0.6-0.7-1-1.4-1.6-2 -11-11.1-21.8-22.4-33.2-33.1 -18.9-17.8-36.7-36.7-55.4-54.7 -4.3-4.1-8.7-8.2-13-12.3 -0.7-0.7-1.6-1.2-2.6-1.9 1-1.2 1.6-1.9 2.3-2.7 0.4 0.3 0.7 0.5 0.9 0.7 2.5 2.5 4.9 5 7.4 7.4 24.2 24 48.4 47.9 72.7 71.9 8.9 7.3 16.3 16.1 24.7 23.8 3.6-3.7 7.2-7.4 11-11.4 3.9 3.9 7.4 7.4 10.9 10.9 0.4-0.3 0.6-0.6 0.9-0.8 23.1-22.1 45.3-45.1 68.3-67.3 12-11.6 23.6-23.6 36-35.3 0.6 0.6 1.3 1.2 2.2 2 -1 1-1.6 1.7-2.3 2.4 -6.7 6.7-13.2 13.6-20.2 20.1 -19.6 18.2-37.7 37.8-57.1 56.2 -7.7 7.3-15.1 14.9-22.7 22.2C418.7 457.5 417.9 458.4 416.8 459.5zM392.8 462.8c-3 3-6.1 6.1-9.1 9.1 6.6 6.7 13.4 13.6 20.2 20.4 0.1 0.1 0.2 0.1 0.3 0.1 0.1 0 0.2 0 0.6 0 6.3-6.3 12.8-12.8 19.2-19.2 0.4-0.5 0.5-1.3 0.9-2.2 -1.7-1.6-3.3-3.1-5-4.7 -1.7-1.6-3.2-3.4-5.1-4.9 -4 4-7.7 7.7-11.7 11.7C399.5 469.5 396.1 466.1 392.8 462.8zM395.5 459.8c2.8 2.8 5.5 5.5 7.9 7.9 2.8-2.8 5.9-5.9 8.9-8.9 -1.2-1.2-2.4-2.5-3.8-3.8 -1.4-1.3-2.5-3-4.3-3.9C401.2 454.1 398.3 457 395.5 459.8z" class="undefined"/><path class="st0" d="M218.4 314.6c0-10 0-19.4 0-28.9 9.4-6.8 18.9-13.7 28.5-20.7 1 0.4 2.1 0.7 2.9 1.3 7.1 5.2 14.1 10.5 21.2 15.8 1.7 1.2 3.4 2.3 5 3.3 0 10.1 0 19.8 0 29.7 -9.5 6.9-19.1 13.9-28.7 20.9C237.6 328.7 227.8 321.9 218.4 314.6zM247.4 304.2c4.1-3 8.1-6 12.2-9 4.1-2.9 8.4-5.6 12.4-9.1 -8.6-5.7-16.2-12.2-24.7-17.6 -8.3 6-16.4 11.8-24.7 17.8C230.9 292.4 239 298.2 247.4 304.2zM221.4 313.1c7.3 5.4 14.5 10.8 21.8 16.2 0.5 0.4 1.1 0.6 1.6 0.8 0.3 0.1 0.7 0.1 1.2 0.2 0-7.7 0-15.3 0-23.4 -7.8-5.6-15.9-11.4-24-17.2 -0.3 0.3-0.5 0.5-0.5 0.7C221.4 297.9 221.4 305.3 221.4 313.1zM273.2 313.6c0-2 0-4 0-6 0-2 0-4 0-6 0-2 0.1-4 0-6 -0.1-1.9 0.4-3.8-0.4-5.8 -8.1 5.9-15.9 11.5-23.5 17 0 7.9 0 15.5 0 23.1 0 0.1 0.1 0.2 0.2 0.3 0.1 0.1 0.2 0.1 0.4 0.3C257.5 325 265.1 319.4 273.2 313.6z" class="undefined"/><path class="st0" d="M562.7 266c0.4 0 1 0 1.5 0 9.2 6.7 18.4 13.4 27.7 20.2 0 9.6 0 19.5 0 29.8 -8.9 6.9-18.5 13.4-27.7 20.5 -2.8-0.2-4.4-2.5-6.4-3.9 -4.4-3.1-8.6-6.4-12.9-9.6 -3.2-2.4-6.5-4.7-9.9-7.1 0-7.7 0-15.5 0-23.2 0-1.7-0.4-3.4-0.4-5.1 0-0.9 0.3-1.6 1.3-2.2 4.2-2.9 8.4-5.9 12.5-8.9C553 273 557.8 269.6 562.7 266zM538.8 287.1c8.4 6.3 16.6 12.1 24.6 17.9 4.1-3 8.2-5.8 12.2-8.9 3.9-3 8.3-5.5 12-9 -1.3-1.1-2.4-2.1-3.5-3 -6.3-4.6-12.6-9.2-19-13.8 -0.7-0.5-1.8-0.6-2.3-0.7C554.8 275.5 547.1 281.1 538.8 287.1zM537.2 313.8c8 5.6 15.8 12 24.6 17.7 0-8.3 0-16.1 0-24 -8-5.7-16-11.4-24-17.1 -0.3 0.5-0.6 0.7-0.6 0.9C537.2 298.7 537.2 306.1 537.2 313.8zM588.8 290.5c-8.1 5.9-16 11.5-23.9 17.2 0 7.5 0 15.1 0 22.7 0 0.2 0.2 0.4 0.5 0.9 7.3-4.8 14-10.4 21.3-15.3 0.8-0.5 1.5-1.3 2-1.7C588.8 306.4 588.8 298.7 588.8 290.5z" class="undefined"/><path class="st0" d="M446.6 301.4c-0.5 9.4-0.3 22.6 0.4 25.2 -2.4 0-4.7 0-7.2 0 0-18.1 0-36.2 0-54.4 2.3 0 4.6 0 6.9 0 -0.6 3.7-0.2 7.5-0.3 11.3 -0.1 3.7 0 7.5 0 11.4 0.5 0.3 1.1 1 1.7 1 4.3 0.1 8.7 0.1 13.3 0.1 0-8.1 0-15.9 0-23.8 2.6 0 4.9 0 7.2 0 -0.6 2.4-0.9 35.2-0.4 51.9 0 0.8 0.2 1.6 0.4 2.6 -2.1 0-4.5 0-7 0 0-8.3 0-16.7 0-25.2C456.4 301.4 451.6 301.4 446.6 301.4z" class="undefined"/><path class="st0" d="M316.5 326.7c-6.6-3.1-9.9-8-9.5-15.4 2.3-0.5 4.4-1 6.5-1.5 0.3 1.7 0.5 3.5 1 5.2 0.6 2.2 1.8 4 3.7 5.3 1.9 1.4 4 1.7 6.2 0.6 0.8-0.4 1.5-0.7 2.4-1.1 1.9-2.4 1-5.4 1-8.2 0-0.9-0.9-2-1.7-2.8 -2.7-2.9-5.7-5.4-8.9-7.7 -1.9-1.3-3.7-2.9-5.4-4.4 -2.9-2.7-4.9-5.8-4.9-9.9 -1.9-2.4 0.1-4.7 0.3-7 0.2-1.9 1.7-3.7 3.3-5.2 3-2.7 8.3-3.9 12.3-2.9 1.9 0.5 3.8 0.6 5.5 1.6 2.1 1.3 3.9 2.8 4.9 5.1 1 2.1 2.3 4.1 2 6.7 -1.2 0.4-2.4 0.8-3.7 1.1 -1.1 0.3-2.3 0.4-3.7 0.6 0.1-3.3-1.1-6-3.5-8.1 -2.8-2.5-8.9-2.2-10.5 2.4 -0.9 2.8-0.6 5.7 1.3 7.9 2.5 3.1 5.8 5.4 8.9 7.8 3.8 3 7.9 5.8 9.7 10.7 1.4 3.9 2.1 7.7 0.8 11.7 -1.5 4.4-4.6 6.5-8.9 7.6C322.5 327.5 319.5 326.6 316.5 326.7z" class="undefined"/><path class="st0" d="M395 326.6c-1.3-4.8-2.1-9.5-3.1-14.1 -3.6 0-6.6 0-9.9 0 -2.2 4.3-2.1 9.4-3.8 14.1 -2.3 0-4.3 0-6.8 0 3.7-18.3 7.8-36.3 11.6-54.5 2.3 0 4.5 0 7.1 0 2.6 8.9 4 18.2 6.1 27.3 2.1 9 3.9 18.1 5.8 27.2C399.6 326.6 397.4 326.6 395 326.6zM386.5 283.2c-0.3 0.7-0.7 1.5-0.8 2.2 -0.2 1.1 0.2 2.4-0.2 3.3 -1 2.2-0.5 4.6-1.2 6.8 -0.6 2.1-0.2 4.5-1 6.5 -0.7 2-0.5 3.8-0.6 5.8 2.6 0 4.9 0 7 0 1.3-0.7 1.3-1.8 1.2-2.8 -0.4-2.1-1.3-4.2-1.4-6.3C389.2 293.5 387.4 288.5 386.5 283.2z" class="undefined"/><path class="st0" d="M497.6 326.5c-1.1-4.6-2.1-9.2-3.2-14 -3.5 0-6.7 0-10.2 0 -1.1 4.6-2.2 9.3-3.3 14.1 -2.3 0-4.3 0-6.6 0 0.2-3.8 1.4-7.3 2.2-10.9 0.8-3.6 1.5-7.3 2.3-11 0.7-3.5 1.5-7.1 2.2-10.6 0.8-3.7 1.5-7.3 2.3-11 0.8-3.6 1.6-7.3 2.4-11.1 2.4 0 4.7 0 7.3 0 3.9 18.1 7.8 36.2 11.7 54.4C502.4 326.5 500.1 326.5 497.6 326.5zM484.9 306.9c2 1.5 6.5 1.5 8.6 0 -1-7.7-2.5-15.3-4.7-22.9C487.5 291.6 486.2 299.2 484.9 306.9z" class="undefined"/><path class="st0" d="M350.6 272c2.5 0 4.7 0 7 0 3.9 18.1 7.7 36.1 11.6 54.4 -2.2 0.5-4.3 0.1-6.7 0.3 -0.3-0.7-0.7-1.4-0.9-2.2 -0.8-3.6-1.6-7.3-2.4-11 -0.1-0.3-0.5-0.6-0.8-1 -3 0-6.1 0-9.5 0 -1.1 2-1.1 4.4-1.6 6.8 -0.5 2.4-1.1 4.7-1.8 7.2 -2.2 0-4.5 0-6.9 0 0.9-4.5 1.8-8.9 2.7-13.4 0.6-2.7 1.2-5.4 1.8-8.1 0.9-4.2 1.8-8.5 2.7-12.7 0.6-2.7 1.1-5.4 1.7-8.1 0.7-3.1 1.3-6.1 2-9.2C349.9 274 350.3 272.9 350.6 272zM358.2 307.8c-0.7-4.9-1.1-9.3-1.9-13.7 -0.6-3-1.3-5.9-1.4-8.9 0-0.4-0.5-0.9-1.1-2 -0.2 1.5-0.2 2.2-0.4 2.9 -1.2 3.9-1.4 8.1-2.3 12 -0.6 2.5-0.1 5.1-1.3 7.5 -0.5 1 0.3 1.9 1.1 2.3C353.2 307.8 355.4 307.8 358.2 307.8z" class="undefined"/><path class="st0" d="M434.5 271.9c-4 18.5-7.8 36.5-11.7 54.7 -2.1 0-4.3 0-6.9 0 -0.5-1.6-1.3-3.3-1.7-5.2 -1.2-7-2.8-14-4.5-20.9 -1.3-5.4-2-10.9-3.1-16.4 -0.8-4-1.9-7.9-2.8-12 2.3 0 4.6 0 7.2 0 2.6 14.1 5.8 28.2 7.8 43 0.7-0.9 1.3-1.4 1.4-1.9 0.3-2.5 0.5-5.1 0.8-7.7 0.5-3.5 1.2-6.9 1.8-10.4 0.6-3.1 1.2-6.1 1.9-9.2 0.7-3.3 1.5-6.6 2.1-9.9 0.2-1.2 0.2-2.5 0.3-3.9C429.3 271.7 431.6 272.1 434.5 271.9z" class="undefined"/><path class="st0" d="M253 347.5c0.7-0.9 1.2-1.6 1.9-2.4 1 0.9 1.9 1.6 2.6 2.4 12.1 12.1 23.9 24.5 36.4 36.2 17.6 16.6 34.1 34.3 51.7 50.9 9 8.4 17.4 17.4 26.5 25.8 -0.7 0.9-1.3 1.6-2 2.5 -1.2-1.2-2.1-2-3-2.9 -9.5-9.5-18.8-19.3-28.7-28.5 -16.9-15.7-32.5-32.8-49.3-48.5C276.8 371.5 265.4 359.2 253 347.5z" class="undefined"/><path class="st0" d="M555.3 253c-1.4 1.1-2.1 1.7-2.8 2.3 -0.2-0.2-0.5-0.4-0.7-0.6 -15.8-15.8-31.3-31.9-47.5-47.3 -16.9-16.1-32.9-33.1-49.8-49.1 -5.5-5.2-10.9-10.6-16.4-15.8 -0.7-0.7-1.5-1.2-2.3-1.8 1-1 1.6-1.6 2.4-2.3 0.5 0.4 1 0.7 1.4 1.1 15.1 14.9 30.2 29.7 45.3 44.6 6.4 6.3 12.6 12.9 19.1 19 16.4 15.4 32 31.5 48 47.2C552.7 251.1 553.8 251.8 555.3 253z" class="undefined"/><path class="st0" d="M437.9 462.9c-0.8-0.5-1.5-1.1-2.5-1.8 1-1 1.5-1.6 2.1-2.2 6.4-6.4 12.7-13.1 19.4-19.3 17.4-16 33.2-33.5 50.4-49.6 14.8-13.9 28.8-28.7 43.4-42.8 0.4-0.3 0.7-0.7 1.3-1.2 0.8 0.6 1.5 1.2 2.2 1.7 -0.1 0.3-0.1 0.6-0.3 0.7 -10.6 10.6-20.9 21.5-31.9 31.7 -17.2 16.1-33.2 33.5-50.4 49.6C460.1 440.6 449.4 452.2 437.9 462.9z" class="undefined"/><path class="st0" d="M370 138.9c0.9 0.6 1.7 1 2.8 1.7 -4.4 4-7.7 8.4-12.2 11.6 -0.9 0.6-1.6 1.5-2.4 2.3 -14.5 14.5-28.7 29.3-43.5 43.4 -16.9 16-33 32.9-49.8 49.1 -3 2.9-6.3 5.6-9.6 8.6 -0.4-0.3-1-0.7-1.6-1.2 0.2-0.4 0.2-0.8 0.4-1.1 3.2-3.2 6.3-6.4 9.5-9.6 11.6-11.6 22.9-23.4 34.8-34.6 17.6-16.6 34.1-34.3 51.7-50.9C356.8 151.7 363.3 144.9 370 138.9z" class="undefined"/><path d="M392 137.7c-2.8-2.8-5.4-5.4-7.7-7.8 6.5-6.5 13.4-13.4 20.3-20.3 1.5 1.9 18 18.4 19.7 19.6 -2.6 2.7-5.3 5.4-8.3 8.5 -1.7-1.4-3.5-3.4-5.4-5.3 -1.9-1.9-3.8-4-5.9-6.1 -0.9 0.5-1.7 0.7-2.3 1.2 -2.9 2.8-5.7 5.6-8.5 8.5C393.2 136.5 392.5 137.2 392 137.7z" class="undefined"/><path d="M394 140.1c3.1-3 6.4-6.1 9.6-9.1 0.1-0.1 0.5 0 0.4 0 3.3 3.3 6.4 6.5 9.4 9.6 -2.9 2.9-6.2 6.2-9.4 9.5C400.8 146.9 397.5 143.6 394 140.1z" class="undefined"/><path d="M392.8 462.8c3.3 3.3 6.7 6.7 10.3 10.3 4-4 7.7-7.7 11.7-11.7 1.9 1.5 3.4 3.3 5.1 4.9 1.6 1.5 3.3 3.1 5 4.7 -0.3 0.9-0.4 1.7-0.9 2.2 -6.4 6.5-12.8 12.9-19.2 19.2 -0.3 0-0.4 0-0.6 0 -0.1 0-0.3-0.1-0.3-0.1 -6.8-6.8-13.5-13.7-20.2-20.4C386.7 468.9 389.8 465.8 392.8 462.8z" class="undefined"/><path d="M395.5 459.8c2.8-2.8 5.7-5.7 8.7-8.7 1.7 0.9 2.9 2.6 4.3 3.9 1.4 1.3 2.6 2.6 3.8 3.8 -3.1 3.1-6.1 6.1-8.9 8.9C401 465.3 398.4 462.7 395.5 459.8z" class="undefined"/><path d="M247.4 304.2c-8.4-6-16.5-11.8-24.9-17.8 8.4-6 16.4-11.8 24.7-17.8 8.5 5.4 16 11.9 24.7 17.6 -4 3.4-8.3 6.1-12.4 9.1C255.5 298.2 251.5 301.2 247.4 304.2z" class="undefined"/><path d="M221.4 313.1c0-7.8 0-15.2 0-22.5 0-0.2 0.3-0.4 0.5-0.7 8.1 5.8 16.2 11.6 24 17.2 0 8.1 0 15.6 0 23.4 -0.5-0.1-0.9-0.1-1.2-0.2 -0.6-0.2-1.1-0.5-1.6-0.8C235.9 323.9 228.7 318.5 221.4 313.1z" class="undefined"/><path d="M273.2 313.6c-8 5.8-15.7 11.4-23.3 16.9 -0.3-0.2-0.4-0.2-0.4-0.3 -0.1-0.1-0.2-0.2-0.2-0.3 0-7.6 0-15.2 0-23.1 7.6-5.5 15.4-11.2 23.5-17 0.8 2 0.3 4 0.4 5.8 0.1 2 0 4 0 6 0 2 0 4 0 6C273.2 309.6 273.2 311.6 273.2 313.6z" class="undefined"/><path d="M538.8 287.1c8.3-6 16-11.6 24.1-17.4 0.5 0.1 1.5 0.2 2.3 0.7 6.4 4.5 12.7 9.1 19 13.8 1.2 0.8 2.2 1.9 3.5 3 -3.7 3.5-8 6-12 9 -4 3-8.1 5.9-12.2 8.9C555.4 299.1 547.2 293.4 538.8 287.1z" class="undefined"/><path d="M537.2 313.8c0-7.7 0-15.1 0-22.4 0-0.2 0.2-0.4 0.6-0.9 8 5.7 16 11.4 24 17.1 0 7.8 0 15.6 0 24C553 325.8 545.2 319.4 537.2 313.8z" class="undefined"/><path d="M588.8 290.5c0 8.2 0 15.9 0 23.9 -0.6 0.5-1.2 1.2-2 1.7 -7.3 4.8-14 10.4-21.3 15.3 -0.3-0.5-0.5-0.7-0.5-0.9 0-7.6 0-15.2 0-22.7C572.8 302 580.7 296.4 588.8 290.5z" class="undefined"/><path d="M386.5 283.2c0.9 5.3 2.7 10.3 3 15.5 0.1 2.1 1 4.2 1.4 6.3 0.2 1 0.2 2-1.2 2.8 -2.1 0-4.4 0-7 0 0-2-0.2-3.8 0.6-5.8 0.7-2 0.3-4.4 1-6.5 0.7-2.2 0.3-4.6 1.2-6.8 0.4-0.9 0-2.2 0.2-3.3C385.8 284.7 386.2 284 386.5 283.2z" class="undefined"/><path d="M484.9 306.9c1.3-7.7 2.6-15.3 3.9-23 2.2 7.6 3.6 15.2 4.7 22.9C491.4 308.4 486.9 308.4 484.9 306.9z" class="undefined"/><path d="M358.2 307.8c-2.8 0-5 0-7.4 0 -0.8-0.4-1.6-1.3-1.1-2.3 1.2-2.4 0.7-5 1.3-7.5 0.9-4 1.2-8.1 2.3-12 0.2-0.7 0.2-1.4 0.4-2.9 0.7 1.1 1.1 1.6 1.1 2 0 3.1 0.8 6 1.4 8.9C357 298.5 357.5 303 358.2 307.8z" class="undefined"/></svg>